
<?xml version="1.0" encoding="utf-8"?>
<!-- Generator: Adobe Illustrator 16.0.4, SVG Export Plug-In . SVG Version: 6.00 Build 0)  -->
<!DOCTYPE svg PUBLIC "-//W3C//DTD SVG 1.1//EN" "http://www.w3.org/Graphics/SVG/1.1/DTD/svg11.dtd">
<svg version="1.1" id="Layer_1" x="0px" y="0px" viewBox="0 0 50 50" enable-background="new 0 0 50 50" xml:space="preserve" fill="#f0394d">
    <g>
        <g>
            <path d="M6.355,25.149c-0.17,0-0.34-0.066-0.467-0.198c-0.251-0.258-0.244-0.671,0.014-0.921l18.645-18.09
        c0.253-0.245,0.654-0.245,0.907,0l5.376,5.216V8.003c0-0.36,0.292-0.651,0.651-0.651h5.099c0.36,0,0.651,0.292,0.651,0.651v9.364
        l6.867,6.663c0.258,0.25,0.264,0.663,0.014,0.921c-0.25,0.258-0.662,0.265-0.921,0.014l-7.065-6.855
        c-0.126-0.123-0.198-0.291-0.198-0.468V8.654h-3.797v4.04c0,0.262-0.156,0.498-0.397,0.6c-0.241,0.102-0.52,0.049-0.708-0.132
        L25,7.314L6.809,24.965C6.682,25.087,6.518,25.149,6.355,25.149z" />
        </g>
        <g>
            <path d="M38.386,44.244h-8.393c-0.36,0-0.651-0.292-0.651-0.651V30.221h-8.684v13.372c0,0.36-0.292,0.651-0.651,0.651h-8.393
        c-0.36,0-0.651-0.292-0.651-0.651V24.076c0-0.36,0.292-0.651,0.651-0.651c0.36,0,0.651,0.292,0.651,0.651v18.865h7.09V29.569
        c0-0.36,0.292-0.651,0.651-0.651h9.987c0.36,0,0.651,0.292,0.651,0.651v13.372h7.09V24.604c0-0.36,0.292-0.651,0.651-0.651
        c0.36,0,0.651,0.292,0.651,0.651v18.989C39.038,43.953,38.746,44.244,38.386,44.244z" />
        </g>
    </g>
</svg>